<svg version="1.1" id="Layer_1" xmlns="http://www.w3.org/2000/svg" xmlns:xlink="http://www.w3.org/1999/xlink" x="0px" y="0px"
	 width="100%" viewBox="0 0 160 336" enable-background="new 0 0 160 336" xml:space="preserve">
<path fill="#000000" opacity="1.000000" stroke="none" 
	d="
M1.000000,334.500000 
	C24.047197,330.377441 45.507603,322.332397 65.890785,311.093323 
	C78.439034,304.174316 90.821472,296.865479 100.954536,286.756683 
	C115.377274,272.368469 113.935036,258.329437 101.239357,243.251480 
	C99.430222,241.102875 96.326065,239.852219 95.968933,235.523727 
	C120.224060,242.840134 135.822113,257.782227 142.695648,281.995361 
	C144.143051,260.041901 140.897049,239.110275 132.708206,218.960098 
	C124.521851,198.816025 111.964981,181.701263 96.473503,166.405624 
	C116.654953,172.858444 131.755371,185.831436 144.139755,202.759399 
	C141.084473,168.870804 125.702057,141.014603 102.878555,116.482674 
	C109.478813,117.603767 113.864105,121.872238 118.585434,125.491730 
	C134.556671,137.735718 147.527527,152.707123 158.371307,169.592621 
	C158.893234,170.405334 159.705551,171.031570 160.691315,171.872314 
	C161.000000,226.916031 161.000000,281.832062 161.000000,337.000000 
	C151.433517,337.000000 141.864838,337.000000 132.296143,337.000000 
	C89.694611,337.000000 47.093048,337.014374 4.491693,336.927124 
	C3.276694,336.924622 0.522173,338.532654 1.000000,334.500000 
z"/>
<path fill="#000000" opacity="1.000000" stroke="none" 
	d="
M161.000000,133.531342 
	C157.121048,127.081985 154.670929,119.514297 150.970917,112.480988 
	C145.065292,101.255066 137.699509,91.107391 129.888367,81.214096 
	C129.026794,80.122856 127.445312,79.287865 128.863510,76.258469 
	C140.812363,85.259506 150.422134,96.184280 160.692596,106.861160 
	C161.000000,115.687569 161.000000,124.375130 161.000000,133.531342 
z"/>
</svg>