<svg xmlns="http://www.w3.org/2000/svg" baseProfile="basic" viewBox="0 0 32 24" id="soil"><path fill="#825012" d="M16 8l16 8-16 8-16-8z"></path><path fill="#825012" d="M16 8l16 8-16 8-16-8z"></path><g fill="#539B00"><path d="M1.6 9.4c-.1 0-.2.1-.2.2v6.3c0 .1.1.2.2.2s.2-.1.2-.2V9.6c0-.1-.1-.2-.2-.2zM3.4 9.4c-.1 0-.2.1-.2.2V15c0 .1.1.2.2.2s.2-.1.2-.2V9.6c0-.1-.1-.2-.2-.2z"></path><path d="M3.8 10.4c-.1 0-.2.1-.2.2v6.3c0 .1.1.2.2.2.1-.1.2-.2.2-.3v-6.3s-.1-.1-.2-.1zM5.8 10.3c-.1 0-.1 0-.1.1V6.8c0-.1-.1-.2-.2-.2s-.2.1-.2.2V14c0 .1.1.2.2.2v3.6c0 .1.1.2.2.2s.2-.1.2-.2v-1.9c.1 0 .1-.1.1-.2v-5.3s-.1-.1-.2-.1zM9.8 8.8V5.6c0-.1-.1-.2-.2-.2s-.2.1-.2.2v3c-.1 0-.2.1-.2.2V16c0 .1.1.2.2.2v3.6c0 .1.1.2.2.2s.2-.1.2-.2v-1.9c.1 0 .1-.1.1-.2v-3.8l.1-.1V9c0-.1-.1-.2-.2-.2zm-.2 3.5c0 .1 0 .1 0 0v-.4.4zM14 5.5c0-.1-.1-.2-.2-.2v-.7c0-.1-.1-.2-.2-.2s-.2.1-.2.2v6.1s-.1 0-.1.1V8.1c0-.1-.1-.2-.2-.2s-.2.1-.2.2v1.7c0-.1-.1-.1-.2-.1h-.1V5.2c0-.1-.1-.2-.2-.2s-.2.1-.2.2v5.3-2.8c0-.1-.1-.2-.2-.2s-.2.1-.2.2v1.7c0-.1-.1-.1-.2-.1h-.1V4.7c0-.1-.1-.2-.2-.2s-.2.1-.2.2V10l-.1.1v4.8c0 .1.1.2.2.2v5.7c0 .1.1.2.2.2s.2-.1.2-.2v-4c.1 0 .1-.1.1-.2v-4.2c0 .1.1.1.2.1s.1 0 .2-.1v2.8c0 .1.1.2.2.2v5.7c0 .1.1.2.2.2s.2-.1.2-.2v-4c.1 0 .1-.1.1-.2V13c0 .1.1.1.2.1 0 0 .1 0 .1-.1v5c0 .1.1.2.2.2v3.6c0 .1.1.2.2.2s.2-.1.2-.2v-1.9c.1 0 .1-.1.1-.2v-3.8l.1-.1V11 5.5zm-.4 8.8c0 .1 0 .1 0 0v-.4.4zM8 12.5V7.4c0-.1-.1-.2-.2-.2s-.2.1-.2.2V8h-.1c-.1-.1-.2 0-.2.1v3.3l-.1.1V17c0 .1.1.2.2.2s.2-.1.2-.2v-2.3c0 .1.1.1.1.2V19c0 .1.1.2.2.2s.2-.1.2-.2v-6.3c0-.1-.1-.1-.1-.2zM18 7.5c0-.1-.1-.2-.2-.2V4.6c0-.1-.1-.2-.2-.2s-.2.1-.2.2v8.1-.7c0-.1 0-.1-.1-.2v-1.7c0-.1-.1-.2-.2-.2v-4c0-.1-.1-.2-.2-.2h-.1v-.1c0-.1-.1-.2-.2-.2s-.2.1-.2.2V7c-.1 0-.1.1-.1.2v4.2-1.7c0-.1-.1-.2-.2-.2v-4c0-.1-.1-.2-.2-.2h-.1v-.1c0-.1-.1-.2-.2-.2s-.2.1-.2.2v1.4c-.1 0-.1.1-.1.2V12l-.1.1v10.7c0 .1.1.2.2.2s.2-.1.2-.2v-1.5c.1 0 .2-.1.2-.2v-5.4c0-.1-.1-.2-.2-.2v-2.3l.1-.1V9.2v1.6c0 .1.1.2.2.2v3.6c0 .1 0 .1.1.2V19c0 .1.1.2.2.2v4.2c0 .1.1.2.2.2s.2-.1.2-.2v-1.5c.1 0 .2-.1.2-.2V16c0-.1-.1-.2-.2-.2v-2.3l.1-.1V9.6v1.6c0 .1.1.2.2.2V15c0 .1 0 .1.1.2v4.2c0 .1.1.2.2.2v.4c0 .1.1.2.2.2s.1 0 .1-.1v1.6c0 .1.1.2.2.2s.2-.1.2-.2v-3.8l.1-.1V13 7.5zm-.4 8.8c0 .1 0 .1 0 0v-.4.4zM22 9.5c0-.1-.1-.2-.2-.2V6.6c0-.1-.1-.2-.2-.2s-.2.1-.2.2v11.3c0 .1.1.2.2.2v1.8c0 .1.1.2.2.2s.2-.1.2-.2V15 9.5zM24.1 13.5v-4c0-.1-.1-.2-.2-.2h-.1v-.1c0-.1-.1-.2-.2-.2s-.2.1-.2.2v1.4c-.1 0-.1.1-.1.2V17c0 .1.1.2.2.2s.2-.1.2-.2v-3.8 1.6c0 .1.1.2.2.2v3.6c0 .1.1.2.2.2s.2-.1.2-.2v-4.8c0-.2-.1-.3-.2-.3zM29.6 10.4c-.1 0-.2.1-.2.2v5.3c0 .1.1.2.2.2s.2-.1.2-.2v-5.3c0-.1-.1-.2-.2-.2zM27.9 11.3c-.1-.2-.2-.3-.3-.3-.1 0-.2.1-.2.2V15c0 .1.1.2.2.2h.1v1.6c0 .1.1.2.2.2s.2-.1.2-.2v-5.3c0-.1-.1-.2-.2-.2zM25.8 11.3V8.5c0-.1-.1-.2-.2-.2s-.2.1-.2.2v7.3c0 .1.1.2.2.2v1.8c0 .1.1.2.2.2s.2-.1.2-.2v-6.3c0-.1-.1-.2-.2-.2zM2.6 9.8c-.1 0-.2.1-.2.2v6.3c0 .1.1.2.2.2s.2-.1.2-.2V10c0-.1-.1-.2-.2-.2zM4.4 9.8c-.1 0-.2.1-.2.2v5.4c0 .1.1.2.2.2s.2-.1.2-.2V10c0-.1-.1-.2-.2-.2z"></path><path d="M4.8 10.8c-.1 0-.2.1-.2.2v6.3c0 .1.1.2.2.2s.2-.1.2-.2V11c0-.1-.1-.2-.2-.2zM6.8 10.7c-.1 0-.1 0-.1.1V7.2c-.1-.1-.2-.2-.3-.2-.1 0-.1.1-.1.2v7.3c0 .1.1.2.2.2v3.6c0 .1.1.2.2.2s.2-.1.2-.2v-1.9c.1 0 .1-.1.1-.2v-5.3c0-.1-.1-.2-.2-.2zM10.8 9.3V6c0-.1-.1-.2-.2-.2s-.2.1-.2.2v3c-.1 0-.2.1-.2.2v7.3c0 .1.1.2.2.2v3.6c0 .1.1.2.2.2s.2-.1.2-.2v-1.9c.1 0 .1-.1.1-.2v-3.8l.1-.1V9.5c0-.1-.1-.2-.2-.2zm-.2 3.5v-.4.4zM15 6c0-.1-.1-.2-.2-.2V5c0-.1-.1-.2-.2-.2s-.2.1-.2.2v6c-.1 0-.2.1-.2.2v7.3c0 .1.1.2.2.2v3.6c0 .1.1.2.2.2s.2-.1.2-.2v-1.9c.1 0 .1-.1.1-.2v-3.8l.1-.1v-4.8V6zm-.4 8.8v-.4.4zM9 13V7.9c0-.1-.1-.2-.2-.2s-.2.1-.2.2v.5h-.1c-.1 0-.2.1-.2.2v3.3l-.1.1v5.4c0 .1.1.2.2.2s.2-.1.2-.2v-2.3c0 .1.1.1.1.2v4.1c0 .1.1.2.2.2s.2-.1.2-.2v-6.3L9 13zM19 8c0-.1-.1-.2-.2-.2V5c0-.1-.1-.2-.2-.2s-.2.1-.2.2v8c-.1 0-.2.1-.2.2v7.3c0 .1.1.2.2.2s.1 0 .1-.1v1.6c0 .1.1.2.2.2s.2-.1.2-.2v-3.8l.1-.1v-4.8V8zm-.4 8.8v-.4.4zM21.1 11.9v-4c0-.1-.1-.2-.2-.2h-.1v-.1c0-.1-.1-.2-.2-.2s-.2.1-.2.2V9c-.1 0-.1.1-.1.2v5.3-2.8c0-.1-.1-.2-.2-.2v-4c0-.1-.1-.2-.2-.2h-.1v-.1c0-.1-.1-.2-.2-.2s-.2.1-.2.2v1.4c-.1 0-.1.1-.1.2V14l-.1.1v4.8c0 .1.1.2.2.2h.1v1.6c0 .1.1.2.2.2s.2-.1.2-.2v-4.2c0 .1.1.1.2.1s.1 0 .2-.1v2.8c0 .1.1.2.2.2h.1v1.6c0 .1.1.2.2.2s.2-.1.2-.2V17c0 .1.1.1.2.1s.2-.1.2-.2v-4.8c-.1-.1-.2-.2-.3-.2zm-1.2 1.5c0-.1-.1-.1-.2-.1h-.1v-2.1 1.6c0 .1.1.2.2.2v.4zm1 .4c0-.1-.1-.1-.2-.1h-.1v-2.1 1.6c0 .1.1.2.2.2v.4zM23 10c0-.1-.1-.2-.2-.2V7c0-.1-.1-.2-.2-.2s-.2.1-.2.2v11.3c0 .1.1.2.2.2v1.8c0 .1.1.2.2.2s.2-.1.2-.2v-4.8V10zM25.1 13.9v-4c0-.1-.1-.2-.2-.2h-.1v-.1c0-.1-.1-.2-.2-.2s-.2.1-.2.2V11c-.1 0-.1.1-.1.2v6.3c0 .1.1.2.2.2s.2-.1.2-.2v-3.8 1.6c0 .1.1.2.2.2v3.6c0 .1.1.2.2.2s.2-.1.2-.2v-4.8c0-.3-.1-.4-.2-.4zM30.6 10.8c-.1 0-.2.1-.2.2v5.3c0 .1.1.2.2.2s.2-.1.2-.2V11c0-.1-.1-.2-.2-.2zM28.9 11.7s0 .1 0 0c-.1-.2-.2-.3-.3-.3-.1 0-.2.1-.2.2v3.8c0 .1.1.2.2.2h.1v1.6c0 .1.1.2.2.2s.2-.1.2-.2v-5.3c0-.1-.1-.2-.2-.2zM26.8 11.8V9c0-.1-.1-.2-.2-.2s-.2.1-.2.2v7.3c0 .1.1.2.2.2v1.8c0 .1.1.2.2.2s.2-.1.2-.2V12c0-.1-.1-.2-.2-.2z"></path></g><g fill="#9C3"><path d="M1.6 6c-.3 0-.6.3-.6.6v3.8c0 .4.3.6.6.6.4 0 .6-.3.6-.6V6.6c.1-.3-.2-.6-.6-.6zM14.3 1.6c0-.3-.3-.6-.7-.6-.3 0-.6.3-.6.6v5.8c-.1.1-.2.3-.2.5v3.8c0 .2.1.4.2.5 0 .1 0 .2.1.3-.1-.1-.1 0-.1.1v3.8c0 .4.3.6.6.6.4 0 .6-.3.6-.6v-.7c.1-.1.1-.2.1-.4v-3.8c0-.1-.1-.3-.1-.4V6.7c.1-.1.2-.3.2-.4V2.6c0-.2-.1-.3-.2-.4v-.6zM4 7V5.9c0-.4-.3-.6-.6-.6-.4 0-.6.2-.6.6V12c0 .4.3.6.6.6.4 0 .6-.2.6-.6.2-.1.4-.3.4-.6V7.6c.1-.2-.1-.5-.4-.6zM12.2 3V1.8c0-.4-.3-.6-.6-.6-.4 0-.6.3-.6.6v9.3c0 .2.1.3.2.4V16c0 .4.3.6.6.6.4 0 .6-.3.6-.6v-5.3c.1-.1.1-.2.1-.3v-.9c.1-.1.2-.3.2-.5V3.6c-.1-.3-.3-.5-.5-.6zM6.1 7V3.8c0-.4-.3-.6-.6-.6-.4 0-.6.3-.6.6v3.8c0 .2.1.4.3.6v.1c-.1.1-.2.2-.2.3v3.8c0 .4.3.6.6.6.4 0 .6-.3.6-.6v-.7c.1-.1.1-.2.1-.4V7.6c.1-.3 0-.5-.2-.6zM10.3 6.4V2.6c0-.3-.3-.6-.7-.6-.3 0-.6.3-.6.6v2.7c-.1.2-.2.3-.2.5v3.8c0 .2.1.4.2.5 0 .1 0 .2.1.3-.1 0-.1.1-.1.2v3.8c0 .4.3.6.6.6.4 0 .6-.3.6-.6v-.7c.1-.1.1-.2.1-.4V9.6c0-.1-.1-.3-.1-.4V6.4zM18.3 3.6v-2c0-.3-.3-.6-.7-.6-.3 0-.6.3-.6.6V9.5l-.2.2v-.9c0-.2-.1-.4-.2-.5V5.6v-3c0-.2-.1-.4-.3-.5V.6c0-.3-.3-.6-.7-.6-.3 0-.6.3-.6.6v2.8c-.1.1-.1.2-.1.4v9.5c-.1.1-.1.2-.1.3v3.8c0 .2.1.4.2.5v.1c0 .4.3.6.6.6.4 0 .6-.3.6-.6v-4.9c.2 0 .4-.2.5-.4v.8c0 .2.1.4.2.5 0 .1.1.2.1.3v2.9c0 .4.3.6.6.6.4 0 .6-.3.6-.6v-3.8c0-.1-.1-.3-.1-.4V8.7c.1-.1.2-.3.2-.4V4.6c0-.2-.1-.3-.2-.4v-.6zM8.1 9.2V8.9c.1-.1.3-.3.3-.5V4.6c0-.2-.1-.4-.3-.5v-.4c0-.4-.3-.7-.6-.7-.4 0-.7.3-.7.7V14c0 .4.3.6.6.6s.5-.2.6-.5c.3-.1.5-.3.5-.6V9.8c0-.3-.1-.5-.4-.6zM20.6 4.6c0-.2-.1-.4-.3-.5V2.6c0-.3-.3-.6-.7-.6-.3 0-.6.3-.6.6v2.8c-.1.1-.1.2-.1.4v9.3c0 .4.3.6.6.6.4 0 .6-.3.6-.6v-.2c.1-.1.3-.3.3-.5v-.9c.1-.1.2-.3.2-.5V7.6v-3zM22.3 5.6v-2c0-.3-.3-.6-.7-.6-.3 0-.6.3-.6.6V16c0 .4.3.6.6.6.4 0 .6-.3.6-.6v-5.3c.1-.1.2-.3.2-.4V6.6c0-.2-.1-.3-.2-.4v-.6zM24.6 6.6c0-.2-.1-.4-.3-.5V4.6c0-.3-.3-.6-.7-.6-.3 0-.6.3-.6.6v2.8c-.1.1-.1.2-.1.4v3.8c0 .3.2.5.4.6V15c0 .4.3.6.6.6.4 0 .6-.3.6-.6V9.6v-3zM26.3 7.6v-2c0-.3-.3-.6-.7-.6-.3 0-.6.3-.6.6v5.8c0 .2.1.3.2.4v.5c0 .4.3.6.6.6.4 0 .6-.3.6-.6V8.6c0-.2-.1-.3-.2-.4v-.6zM29.6 7c-.3 0-.6.3-.6.6v3.8c0 .4.3.6.6.6.4 0 .6-.3.6-.6V7.6c.1-.3-.2-.6-.6-.6zM28.3 8V6.6c0-.3-.3-.6-.7-.6-.3 0-.6.3-.6.6V12c0 .3.1.5.4.6.1.2.3.4.6.4.4 0 .6-.3.6-.6V8.6c0-.3-.1-.4-.3-.6z"></path></g></svg>