<svg xmlns="http://www.w3.org/2000/svg" viewBox="0 0 480 480" id="tractor"><path fill="#262626" d="m272 414 156-78-260-130-156 78z" opacity=".3"></path><path fill="#2D3134" d="M120.2 203.3c-14.9-7.4-28.3-8-37.9-2.9l-27.4 13.8c-9.2 4.9-15 15-15 29.3 0 29.2 23.7 64.6 52.8 79.2 16 8 30.4 8 40 1.6l22.3-11.1c11-4.2 18-14.9 18-30.7.1-29.1-23.6-64.6-52.8-79.2z"></path><path d="M145.6 296.3c0 29.2-23.7 41-52.8 26.4S40 272.6 40 243.5s23.7-41 52.8-26.4c29.1 14.6 52.8 50.1 52.8 79.2z" opacity=".11"></path><path fill="#FFF" d="M95.1 215.8c-15.9-7.9-30.1-8-39.8-1.8 9.1-3 20.9-1.7 33.7 4.7 29.2 14.6 52.8 50.1 52.8 79.2 0 13.3-4.9 23-13 28.2 11.7-3.9 19.1-14.8 19.1-31.1.1-29.2-23.6-64.6-52.8-79.2z" opacity=".1"></path><path fill="#28896D" d="M118.7 282.9c0 14.3-11.6 20.1-25.9 12.9S66.9 271.3 66.9 257c0-14.3 11.6-20.1 25.9-12.9s25.9 24.5 25.9 38.8z"></path><path fill="#28896D" d="M116.5 281.8c0 13.1-10.6 18.5-23.8 11.9S69 271.2 69 258c0-13.1 10.6-18.5 23.8-11.9s23.7 22.6 23.7 35.7z"></path><path fill="#28896D" d="M116.5 281.8c0 13.1-10.6 18.5-23.8 11.9S69 271.2 69 258c0-13.1 10.6-18.5 23.8-11.9s23.7 22.6 23.7 35.7z"></path><path d="M116.5 281.8c0 13.1-10.6 18.5-23.8 11.9S69 271.2 69 258c0-13.1 10.6-18.5 23.8-11.9s23.7 22.6 23.7 35.7z" opacity=".29"></path><path d="M92.8 246.2C79.6 239.6 69 244.9 69 258c0 7.1 3.1 15 8.1 21.9l33.5-16.8c-4.4-7.1-10.7-13.4-17.8-16.9z" opacity=".15"></path><path fill="#28896D" d="m97.3 248.9-6.2 3.3c-2.9 1.3-5.2 3.5-5.2 7.8 0 7.1 5.8 15.8 12.9 19.4 3.3 1.7 6.3 1.9 8.6 1l8.5-4.1c-2-10.2-9.3-21-18.6-27.4z"></path><path d="m97.3 248.9-6.2 3.3c-2.9 1.3-5.2 3.5-5.2 7.8 0 7.1 5.8 15.8 12.9 19.4 3.3 1.7 6.3 1.9 8.6 1l8.5-4.1c-2-10.2-9.3-21-18.6-27.4zM131.2 252.9c8.9 13.9 14.4 29.4 14.4 43.5 0 13.2-4.8 22.8-12.8 28l22.3-11.1c11-4.2 18-14.9 18-30.7 0-14-5.5-29.5-14.4-43.4l-27.5 13.7z" opacity=".29"></path><path fill="#28896D" d="M111.8 272.9c0 7.1-5.8 10-12.9 6.5C91.8 275.8 86 267.1 86 260s5.8-10 12.9-6.5 12.9 12.3 12.9 19.4z"></path><g opacity=".5"><path d="M101 259.1c0 1.2-.9 1.6-2.1 1.1s-2.1-2-2.1-3.2c0-1.2.9-1.6 2.1-1.1s2.1 2 2.1 3.2zM101 276c0 1.2-.9 1.6-2.1 1.1s-2.1-2-2.1-3.2c0-1.2.9-1.6 2.1-1.1s2.1 2 2.1 3.2zM94.4 256.7c.8 1.2.8 2.6 0 3-.8.4-2.2-.3-3-1.5s-.8-2.6 0-3 2.1.3 3 1.5zM106.3 274.7c.8 1.2.8 2.6 0 3-.8.4-2.2-.3-3-1.5-.8-1.2-.8-2.6 0-3 .8-.4 2.2.2 3 1.5zM90.4 260.1c1.2.6 2.1 2 2.1 3.2s-.9 1.6-2.1 1.1c-1.2-.6-2.1-2-2.1-3.2s.9-1.7 2.1-1.1zM107.3 268.6c1.2.6 2.1 2 2.1 3.2s-.9 1.6-2.1 1.1c-1.2-.6-2.1-2-2.1-3.2s.9-1.7 2.1-1.1zM91.4 267.2c.8-.4 2.2.3 3 1.5.8 1.2.8 2.6 0 3-.8.4-2.2-.3-3-1.5-.9-1.3-.9-2.6 0-3zM103.3 261.2c.8-.4 2.2.3 3 1.5.8 1.2.8 2.6 0 3-.8.4-2.2-.3-3-1.5s-.8-2.6 0-3z"></path></g><path fill="#FFF" d="M92.8 217.1C63.6 202.5 40 214.3 40 243.5s23.7 64.6 52.8 79.2 52.8 2.8 52.8-26.4-23.7-64.6-52.8-79.2zm0 99.3c-25.7-12.8-46.5-44-46.5-69.7 0-25.7 20.8-36.1 46.5-23.2 25.7 12.8 46.5 44 46.5 69.7 0 25.6-20.9 36-46.5 23.2z" opacity=".1"></path><g opacity=".5"><path d="m88.9 219.4 8.5 4.2-4.2-6.3c-.1-.1-.2-.1-.4-.2-2.6-1.3-5.1-2.3-7.6-3.2l3.7 5.5zM97.3 320.8l-8.5-4.2 3.2 5.8c.2.1.5.3.7.4 2.5 1.2 5 2.3 7.4 3.2l-2.8-5.2zM65.1 215.9l7.3-.6-5.8-4.4h-.3c-2.2.2-4.3.6-6.3 1.1l5.1 3.9zM121 323.8l-7.3.6 4.8 4.5h.6c2.2-.2 4.2-.5 6.1-1.1l-4.2-4zM48.7 226.9l4.2-5.2-5.8-1.3-.2.2c-1.3 1.6-2.4 3.3-3.3 5.2l5.1 1.1zM137.1 312.3l-4.2 5.2 5.2 2 .4-.4c1.2-1.5 2.3-3.2 3.2-5l-4.6-1.8zM44.2 249.4V241l-4.2 2.1v.4c0 2.6.2 5.2.5 7.8l3.7-1.9zM141.4 289.5v8.5l4.2-1.1v-.7c0-2.5-.2-5-.5-7.6l-3.7.9zM52.6 277.4l-4.2-9.4-1.5 5c.1.1.1.3.2.4 1.3 2.9 2.7 5.7 4.2 8.4l1.3-4.4zM132.6 261.5l4.2 9.4 2.1-3.8c-.1-.3-.2-.5-.3-.8-1.2-2.8-2.6-5.5-4.1-8.2l-1.9 3.4zM71.8 303.4l-7.3-7.9L66 302l.3.3c2.2 2.4 4.5 4.6 6.8 6.7l-1.3-5.6zM113.1 235.7l7.3 7.9-.6-5.5c-.2-.2-.4-.5-.6-.7-2.2-2.3-4.4-4.5-6.6-6.5l.5 4.8z"></path></g><g opacity=".5"><path d="M84.4 199.4c-.7.3-1.4.6-2.1 1l-6.9 3.4-.8 1.3-14.5 6.9c2-.6 4-.9 6.3-1.1h.3l14.7-6.3 3-5.2zM149.9 227.3c-1.6-1.9-3.3-3.7-5-5.5l-8.3 9.8-24.1-.8c2.3 2 4.5 4.2 6.6 6.5.2.2.4.5.6.7l21.2.5 9-11.2zM92.8 217.1c.1.1.2.1.4.2l23.4-2.3 5.7-10.6c-.7-.4-1.3-.7-2-1-1.5-.7-3-1.4-4.4-2l-5.4 9.4-25.2 3.2c2.4.8 4.9 1.8 7.5 3.1zM159.9 300.7l11.4-5.5c.9-2.8 1.4-6 1.7-9.4l-12.2 6.4-15.6-3.6c.3 2.6.5 5.1.5 7.6v.7l14.2 3.8zM141.7 314.1c-.9 1.8-2 3.5-3.2 5l-.4.4 3.4.5 9-4.5-8.8-1.4zM138.9 267.1l20.4 4.3 10.4-9.1c-1-3.2-2.2-6.3-3.6-9.5l-10.4 8.7-21.2-3.4c1.5 2.7 2.9 5.4 4.1 8.2.1.2.2.5.3.8z"></path></g><path fill="#656565" d="m110.8 179.1 52.7 26.4-40.2 20.1-52.7-26.5z"></path><path fill="#28896D" d="m191 249.9-27.5-44.4-52.7-26.4-20.1 5.3-40.2 20 20.1-5.3 52.7 26.5L151 270v19l40.1-20.1v-19z"></path><path d="m110.8 179.1-20.1 5.3-40.2 20 20.1-5.3z" opacity=".29"></path><path fill="#28896D" d="M300 275v-40l-94 47v40z"></path><path d="m191 249.9-27.5-44.4-40.2 20.1 27.5 44.3z" opacity=".1"></path><path d="M191.1 249.9v19L151 289v-19z" opacity=".29"></path><path fill="#2D3134" d="m206 75-94 47v75l33.9 17 27.1 44v48l33 16 94-43V122z"></path><path fill="#656565" d="M183 267.8v-12.5l-30-48.9-31-15.5V138l80 40.1V277z"></path><path fill="#2D3134" d="m152 208-6-3v-57l6 3z"></path><path d="m202 185.5-47.3 23.7 27.7 45 19.6-9.8z" opacity=".1"></path><path fill="#FFF" d="m174.6 164.3-52.2 26.8 30.6 15.3 1.7 2.8 47.3-23.7v-7.4z" opacity=".1"></path><path d="M112 122v75l33.9 17 27.1 44v48l33 16V169z" opacity=".11"></path><path fill="#656565" d="M296 234v-99l-86 43v99z"></path><path fill="#FFF" d="m206 180.3 94 2.8V129l-94 47z" opacity=".15"></path><path fill="#2D3134" d="M300 133v-11l-94 47v11z"></path><path fill="#28896D" d="m179 269-10 5v52l4 2 4-2 6-55z"></path><path d="m169 274 4 2v52l-4-2z" opacity=".11"></path><path d="m183 271-10 5v52l4-2z" opacity=".29"></path><path fill="#28896D" d="m181 282-8 4v4l18 9 4-10z"></path><path d="M173 286v4l18 9v-4z" opacity=".11"></path><path fill="#28896D" d="m179 299-6 3v4l18 9 2-9z"></path><path d="M173 302v4l18 9v-4z" opacity=".11"></path><path fill="#28896D" d="m177 316-4 2v4l18 9v-8z"></path><path d="M173 318v4l18 9v-4z" opacity=".11"></path><path fill="#28896D" d="m201 280-10 5v52l4 2 4-2 6-55z"></path><path d="m191 285 4 2v52l-4-2z" opacity=".11"></path><path d="m205 282-10 5v52l4-2z" opacity=".29"></path><path fill="#2D3134" d="M375.2 236.2c-12.5-6.2-23.7-6.7-31.7-2.4l-22.9 11.5c-7.7 4.1-12.5 12.6-12.5 24.5 0 24.4 19.8 54.1 44.2 66.3 13.4 6.7 25.4 6.7 33.5 1.4l18.6-9.3c9.2-3.5 15-12.4 15-25.7 0-24.4-19.8-54.1-44.2-66.3z"></path><path d="M396.4 314.1c0 24.4-19.8 34.3-44.2 22.1S308 294.3 308 269.9s19.8-34.3 44.2-22.1 44.2 41.8 44.2 66.3z" opacity=".11"></path><path fill="#FFF" d="M354.2 246.7c-13.3-6.6-25.2-6.7-33.3-1.5 7.7-2.5 17.5-1.4 28.2 3.9 24.4 12.2 44.2 41.9 44.2 66.3 0 11.1-4.1 19.2-10.9 23.6 9.8-3.2 16-12.3 16-26 0-24.5-19.8-54.1-44.2-66.3z" opacity=".1"></path><path fill="#28896D" d="M373.9 302.8c0 12-9.7 16.8-21.7 10.8s-21.7-20.5-21.7-32.5 9.7-16.8 21.7-10.8 21.7 20.5 21.7 32.5z"></path><path fill="#28896D" d="M372.1 301.9c0 11-8.9 15.4-19.9 9.9-11-5.5-19.9-18.8-19.9-29.8s8.9-15.4 19.9-9.9 19.9 18.8 19.9 29.8z"></path><path fill="#28896D" d="M372.1 301.9c0 11-8.9 15.4-19.9 9.9-11-5.5-19.9-18.8-19.9-29.8s8.9-15.4 19.9-9.9 19.9 18.8 19.9 29.8z"></path><path d="M372.1 301.9c0 11-8.9 15.4-19.9 9.9-11-5.5-19.9-18.8-19.9-29.8s8.9-15.4 19.9-9.9 19.9 18.8 19.9 29.8z" opacity=".29"></path><path d="M352.2 272.1c-11-5.5-19.9-1-19.9 9.9 0 5.9 2.6 12.6 6.7 18.3l28.1-14c-3.6-6-9-11.3-14.9-14.2z" opacity=".15"></path><path fill="#28896D" d="m356 274.4-5.2 2.8c-2.4 1.1-4.4 2.9-4.4 6.5 0 6 4.8 13.3 10.8 16.2 2.8 1.4 5.3 1.6 7.2.8l7.1-3.4c-1.6-8.5-7.7-17.6-15.5-22.9z"></path><path d="m356 274.4-5.2 2.8c-2.4 1.1-4.4 2.9-4.4 6.5 0 6 4.8 13.3 10.8 16.2 2.8 1.4 5.3 1.6 7.2.8l7.1-3.4c-1.6-8.5-7.7-17.6-15.5-22.9zM383.9 278.1c7.5 11.7 12.1 24.6 12.1 36.4 0 11-4 19.1-10.7 23.5l18.6-9.3c9.2-3.5 15-12.4 15-25.7 0-11.7-4.6-24.7-12-36.3l-23 11.4z" opacity=".29"></path><path fill="#28896D" d="M368.1 294.5c0 6-4.8 8.4-10.8 5.4s-10.8-10.3-10.8-16.2c0-6 4.8-8.4 10.8-5.4s10.8 10.2 10.8 16.2z"></path><g opacity=".5"><path d="M359.1 282.9c0 1-.8 1.4-1.8.9s-1.8-1.7-1.8-2.7c0-1 .8-1.4 1.8-.9s1.8 1.7 1.8 2.7zM359.1 297c0 1-.8 1.4-1.8.9s-1.8-1.7-1.8-2.7.8-1.4 1.8-.9c1 .5 1.8 1.7 1.8 2.7zM353.5 280.9c.7 1 .7 2.2 0 2.5-.7.3-1.8-.2-2.5-1.2s-.7-2.2 0-2.5c.7-.4 1.8.2 2.5 1.2zM363.5 295.9c.7 1 .7 2.2 0 2.5-.7.3-1.8-.2-2.5-1.2s-.7-2.2 0-2.5c.7-.4 1.8.2 2.5 1.2zM350.2 283.7c1 .5 1.8 1.7 1.8 2.7 0 1-.8 1.4-1.8.9s-1.8-1.7-1.8-2.7.8-1.3 1.8-.9zM364.4 290.8c1 .5 1.8 1.7 1.8 2.7 0 1-.8 1.4-1.8.9-1-.5-1.8-1.7-1.8-2.7 0-1 .8-1.4 1.8-.9zM351 289.7c.7-.3 1.8.2 2.5 1.2s.7 2.2 0 2.5c-.7.3-1.8-.2-2.5-1.2-.7-1.1-.7-2.2 0-2.5zM361 284.7c.7-.3 1.8.2 2.5 1.2s.7 2.2 0 2.5c-.7.3-1.8-.2-2.5-1.2-.7-1.1-.7-2.2 0-2.5z"></path></g><path fill="#FFF" d="M352.2 247.8c-24.4-12.2-44.2-2.3-44.2 22.1 0 24.4 19.8 54.1 44.2 66.3 24.4 12.2 44.2 2.3 44.2-22.1s-19.8-54.1-44.2-66.3zm0 83.1c-21.5-10.7-38.9-36.9-38.9-58.3 0-21.5 17.4-30.2 38.9-19.5s38.9 36.9 38.9 58.3-17.4 30.2-38.9 19.5z" opacity=".1"></path><g opacity=".5"><path d="m349 249.7 7.1 3.5-3.5-5.3c-.1-.1-.2-.1-.3-.2-2.1-1.1-4.3-2-6.3-2.7l3 4.7zM356 334.5l-7-3.5 2.6 4.8.6.3c2.1 1 4.1 1.9 6.2 2.6l-2.4-4.2zM329.1 246.7l6.1-.5-4.8-3.7h-.3c-1.9.1-3.6.5-5.2.9l4.2 3.3zM375.8 337l-6.1.5 4 3.8h.5c1.8-.1 3.5-.5 5.1-.9l-3.5-3.4zM315.3 255.9l3.5-4.4-4.8-1.1-.2.2c-1.1 1.3-2 2.8-2.8 4.3l4.3 1zM389.3 327.4l-3.5 4.4 4.4 1.7c.1-.1.2-.2.3-.4 1-1.3 1.9-2.7 2.7-4.2l-3.9-1.5zM311.6 274.8v-7.1l-3.5 1.8v.3c0 2.1.2 4.3.5 6.5l3-1.5zM392.9 308.4v7.1l3.5-.9v-.6c0-2.1-.2-4.2-.4-6.4l-3.1.8zM318.6 298.2l-3.5-7.9-1.3 4.2c0 .1.1.2.1.3 1.1 2.4 2.3 4.7 3.6 7l1.1-3.6zM385.5 284.9l3.5 7.9 1.7-3.2c-.1-.2-.2-.4-.3-.7-1-2.3-2.2-4.6-3.5-6.8l-1.4 2.8zM334.7 320l-6.1-6.6 1.3 5.5.3.3c1.9 2 3.8 3.9 5.7 5.6l-1.2-4.8zM369.2 263.3l6.1 6.6-.5-4.6c-.2-.2-.3-.4-.5-.6-1.8-1.9-3.7-3.8-5.5-5.5l.4 4.1z"></path></g><g opacity=".5"><path d="M345.2 233c-.6.3-1.2.5-1.8.8l-5.7 2.9-.6 1.1-12.2 5.7c1.6-.5 3.4-.8 5.2-.9h.3l12.3-5.2 2.5-4.4zM400 256.3c-1.3-1.6-2.7-3.1-4.2-4.6l-6.9 8.2-20.2-.7c1.9 1.7 3.7 3.5 5.5 5.5.2.2.3.4.5.6l17.7.4 7.6-9.4zM352.2 247.8c.1.1.2.1.3.2l19.6-1.9 4.8-8.9c-.6-.3-1.1-.6-1.7-.9-1.3-.6-2.5-1.2-3.7-1.7l-4.5 7.8-21 2.7c1.9.7 4.1 1.6 6.2 2.7zM408.3 317.7l9.6-4.6c.7-2.4 1.2-5 1.4-7.8l-10.2 5.3-13.1-3c.3 2.2.4 4.3.4 6.4v.6l11.9 3.1zM393.1 328.9c-.8 1.5-1.7 2.9-2.7 4.2-.1.1-.2.2-.3.4l2.9.4 7.6-3.8-7.5-1.2zM390.8 289.6l17.1 3.6 8.7-7.6c-.8-2.6-1.9-5.3-3-7.9l-8.7 7.3-17.8-2.9c1.2 2.2 2.4 4.5 3.5 6.8 0 .2.1.5.2.7z"></path></g><path fill="#28896D" d="M386 339v-11l-56 28v11z"></path><path d="M386 339v-11l-56 28v11z" opacity=".29"></path><path fill="#2D3134" d="m280 264 122 61-56 28-122-61z"></path><path fill="#28896D" d="M402 336v-11l-56 28v11z"></path><path d="M402 336v-11l-56 28v11z" opacity=".29"></path><path fill="#28896D" d="M224 314v-22l122 61v11l-16-8v11z"></path><path d="M224 314v-22l122 61v11l-16-8v11z" opacity=".11"></path><path d="M300 257V122l-94 47v135z" opacity=".29"></path><path fill="#28896D" d="m224 221 56-28 82 50.5c14.9 9 24 25.1 24 42.5v31l-56 28-106-53v-71z"></path><path fill="#2D3134" d="m322.6 291.3-7.6-3.8c-3.2-1.6-7 .7-7 4.3v25.6c0 5.3 3 10.1 7.7 12.4l10.8 5.4c2.2 1.1 4.9 1.1 7.1 0L386 309v-22.9c0-7.3-1.6-14.4-4.6-20.8l-51.9 26c-2.2 1.1-4.7 1.1-6.9 0zM238 249v2l32 16v-2zM238 254v2l32 16v-2zM238 259v2l32 16v-2zM238 264v2l32 16v-2zM238 269v2l32 16v-2z"></path><path d="M224 292v-71l82 50.5c14.9 9 24 25.1 24 42.5v31l-106-53z" opacity=".11"></path><path d="M224 292v-71l82 50.5c14.9 9 24 25.1 24 42.5v31l-106-53z" opacity=".11"></path><path fill="#FFF" d="M350 308.3v-5c0-2-2.1-3.3-3.9-2.4l-12.6 6.3c-.9.5-1.5 1.4-1.5 2.4v5c0 2 2.1 3.3 3.9 2.4l12.6-6.3c.9-.4 1.5-1.3 1.5-2.4z"></path><ellipse cx="344.2" cy="307.4" fill="#2D3134" opacity=".3" rx="4.9" ry="3.2" transform="rotate(129.144 344.2 307.36)"></ellipse><ellipse cx="338" cy="310.4" fill="#2D3134" opacity=".3" rx="4.9" ry="3.2" transform="rotate(129.144 337.963 310.36)"></ellipse><path fill="#FFF" d="m349.4 309.9-16.9-1.9c-.3.5-.6 1-.6 1.6v5c0 2 2.1 3.3 3.9 2.4l12.6-6.3c.5-.1.8-.4 1-.8z" opacity=".3"></path><path fill="#FFF" d="M384 291.3v-5c0-2-2.1-3.3-3.9-2.4l-12.6 6.3c-.9.5-1.5 1.4-1.5 2.4v5c0 2 2.1 3.3 3.9 2.4l12.6-6.3c.9-.4 1.5-1.3 1.5-2.4z"></path><ellipse cx="378.2" cy="290.4" fill="#2D3134" opacity=".3" rx="4.9" ry="3.2" transform="rotate(129.144 378.2 290.36)"></ellipse><ellipse cx="372" cy="293.4" fill="#2D3134" opacity=".3" rx="4.9" ry="3.2" transform="rotate(129.144 371.961 293.36)"></ellipse><path fill="#FFF" d="m383.4 292.9-16.9-1.9c-.3.5-.6 1-.6 1.6v5c0 2 2.1 3.3 3.9 2.4l12.6-6.3c.5-.1.8-.4 1-.8z" opacity=".3"></path><path d="M381.4 265.3 326 293l-.9-.5c3.2 6.6 4.9 13.9 4.9 21.5v31l56-28v-30.9c0-7.3-1.6-14.4-4.6-20.8z" opacity=".29"></path><path fill="#FFF" d="m372.5 256.9-49.3 23.9c-2.1 1-2.8 3.7-1.5 5.7v.1c1.1 1.6 3.2 2.1 4.9 1.3l49.3-23.9c2.1-1 2.9-3.7 1.6-5.7v-.1c-1.1-1.6-3.2-2.2-5-1.3z" opacity=".1"></path><path fill="#28896D" d="m204 66-94 47v15l98 49 94-47v-15z"></path><path d="M110 128v-15l98 49v15z" opacity=".11"></path><path fill="#FFF" d="M226.4 160.7c0 2.9 2.4 4.1 5.3 2.7 2.9-1.5 5.3-5 5.3-8s-2.4-4.1-5.3-2.7c-2.9 1.5-5.3 5.1-5.3 8zM275.4 136.6c0 2.9 2.4 4.1 5.3 2.7 2.9-1.5 5.3-5 5.3-8s-2.4-4.1-5.3-2.7c-2.9 1.5-5.3 5-5.3 8z"></path><path fill="#FC0" d="M300 126v-7l-12 6v7zM222 165v-7l-12 6v7z"></path><ellipse cx="282.2" cy="132.5" fill="#2D3134" opacity=".3" rx="3.1" ry="2.1" transform="rotate(129.144 282.194 132.47)"></ellipse><ellipse cx="232.2" cy="156.5" fill="#2D3134" opacity=".3" rx="3.1" ry="2.1" transform="rotate(129.144 232.196 156.468)"></ellipse><path d="M302 130v-15l-94 47v15z" opacity=".29"></path><path fill="#2D3134" d="M223 190c-4.4 0-8 1.8-8 4v78c0 2.2 3.6 4 8 4s8-1.8 8-4v-78c0-2.2-3.6-4-8-4z"></path><ellipse cx="223" cy="194" opacity=".8" rx="6" ry="2.5"></ellipse><path fill="#2D3134" d="M237.4 292.3c0-1.3-1.1-3-2.4-3.7-.9-.4-1.6-.4-2 .1-1.5.5-3.1.3-4.5-.5-1.6-1-2.5-2.6-2.5-4.5V146h-6v137.7c0 3.9 2 7.5 5.4 9.6 1.8 1.1 3.9 1.7 5.9 1.7 1.7 0 3.5-.4 5.1-1.2-.1 0 1-.7 1-1.5z"></path><path fill="#2D3134" d="M226 190.3v1.5c1.8.4 3 1.2 3 2.2 0 1.4-2.7 2.5-6 2.5s-6-1.1-6-2.5c0-.9 1.2-1.7 3-2.2v-1.5c-2.9.6-5 2-5 3.7v78c0 2.2 3.6 4 8 4s8-1.8 8-4v-78c0-1.7-2.1-3.1-5-3.7z"></path><path d="M223 198c-4.4 0-8-1.8-8-4v78c0 2.2 3.6 4 8 4s8-1.8 8-4v-78c0 2.2-3.6 4-8 4z" opacity=".2"></path><ellipse cx="223" cy="146" fill="#2D3134" rx="3" ry="2"></ellipse><path fill="#2D3134" d="M263.2 292.8c-12.5-6.2-23.7-6.7-31.7-2.4l-22.9 11.5c-7.7 4.1-12.5 12.6-12.5 24.5 0 24.4 19.8 54.1 44.2 66.3 13.4 6.7 25.4 6.7 33.5 1.4l18.6-9.3c9.2-3.5 15-12.4 15-25.7 0-24.4-19.8-54.1-44.2-66.3z"></path><path d="M284.4 370.7c0 24.4-19.8 34.3-44.2 22.1S196 350.9 196 326.5s19.8-34.3 44.2-22.1 44.2 41.9 44.2 66.3z" opacity=".11"></path><path fill="#FFF" d="M242.2 303.3c-13.3-6.6-25.2-6.7-33.3-1.5 7.7-2.5 17.5-1.4 28.2 3.9 24.4 12.2 44.2 41.9 44.2 66.3 0 11.1-4.1 19.2-10.9 23.6 9.8-3.2 16-12.3 16-26 0-24.4-19.8-54.1-44.2-66.3z" opacity=".1"></path><path fill="#28896D" d="M261.9 359.4c0 12-9.7 16.8-21.7 10.8s-21.7-20.5-21.7-32.5 9.7-16.8 21.7-10.8 21.7 20.5 21.7 32.5z"></path><path fill="#28896D" d="M260.1 358.5c0 11-8.9 15.4-19.9 9.9-11-5.5-19.9-18.8-19.9-29.8s8.9-15.4 19.9-9.9c11 5.5 19.9 18.8 19.9 29.8z"></path><path fill="#28896D" d="M260.1 358.5c0 11-8.9 15.4-19.9 9.9-11-5.5-19.9-18.8-19.9-29.8s8.9-15.4 19.9-9.9c11 5.5 19.9 18.8 19.9 29.8z"></path><path d="M260.1 358.5c0 11-8.9 15.4-19.9 9.9-11-5.5-19.9-18.8-19.9-29.8s8.9-15.4 19.9-9.9c11 5.5 19.9 18.8 19.9 29.8z" opacity=".29"></path><path d="M240.2 328.7c-11-5.5-19.9-1-19.9 9.9 0 5.9 2.6 12.6 6.7 18.3l28.1-14c-3.6-6-9-11.2-14.9-14.2z" opacity=".15"></path><path fill="#28896D" d="m244 331-5.2 2.8c-2.4 1.1-4.4 2.9-4.4 6.5 0 6 4.8 13.3 10.8 16.2 2.8 1.4 5.3 1.6 7.2.8l7.1-3.4c-1.6-8.5-7.7-17.6-15.5-22.9z"></path><path d="m244 331-5.2 2.8c-2.4 1.1-4.4 2.9-4.4 6.5 0 6 4.8 13.3 10.8 16.2 2.8 1.4 5.3 1.6 7.2.8l7.1-3.4c-1.6-8.5-7.7-17.6-15.5-22.9zM272.3 334.3c7.5 11.7 12.1 24.6 12.1 36.4 0 11-4 19.1-10.7 23.5l18.6-9.3c9.2-3.5 15-12.4 15-25.7 0-11.7-4.6-24.7-12-36.3l-23 11.4z" opacity=".29"></path><path fill="#28896D" d="M256.1 351.1c0 6-4.8 8.4-10.8 5.4-6-3-10.8-10.3-10.8-16.2s4.8-8.4 10.8-5.4c6 2.9 10.8 10.2 10.8 16.2z"></path><g opacity=".5"><path d="M247.1 339.5c0 1-.8 1.4-1.8.9-1-.5-1.8-1.7-1.8-2.7s.8-1.4 1.8-.9c1 .5 1.8 1.7 1.8 2.7zM247.1 353.6c0 1-.8 1.4-1.8.9-1-.5-1.8-1.7-1.8-2.7 0-1 .8-1.4 1.8-.9 1 .6 1.8 1.7 1.8 2.7zM241.5 337.5c.7 1 .7 2.2 0 2.5s-1.8-.2-2.5-1.2-.7-2.2 0-2.5c.7-.4 1.8.2 2.5 1.2zM251.5 352.5c.7 1 .7 2.2 0 2.5s-1.8-.2-2.5-1.2-.7-2.2 0-2.5 1.8.2 2.5 1.2zM238.2 340.4c1 .5 1.8 1.7 1.8 2.7s-.8 1.4-1.8.9c-1-.5-1.8-1.7-1.8-2.7 0-1 .8-1.4 1.8-.9zM252.4 347.4c1 .5 1.8 1.7 1.8 2.7s-.8 1.4-1.8.9c-1-.5-1.8-1.7-1.8-2.7s.8-1.4 1.8-.9zM239 346.3c.7-.3 1.8.2 2.5 1.2s.7 2.2 0 2.5-1.8-.2-2.5-1.2-.7-2.2 0-2.5zM249 341.3c.7-.3 1.8.2 2.5 1.2s.7 2.2 0 2.5-1.8-.2-2.5-1.2c-.7-1.1-.7-2.2 0-2.5z"></path></g><path fill="#FFF" d="M240.2 304.4c-24.4-12.2-44.2-2.3-44.2 22.1s19.8 54.1 44.2 66.3c24.4 12.2 44.2 2.3 44.2-22.1s-19.8-54.1-44.2-66.3zm0 83.1c-21.5-10.7-38.9-36.9-38.9-58.3 0-21.5 17.4-30.2 38.9-19.5s38.9 36.9 38.9 58.3-17.4 30.2-38.9 19.5z" opacity=".1"></path><g opacity=".5"><path d="m237 306.3 7.1 3.5-3.5-5.3c-.1-.1-.2-.1-.3-.2-2.1-1.1-4.3-2-6.3-2.7l3 4.7zM244 391.2l-7.1-3.5 2.6 4.8.6.3c2.1 1 4.1 1.9 6.2 2.6l-2.3-4.2zM217.1 303.4l6.1-.5-4.8-3.7h-.3c-1.9.1-3.6.5-5.2.9l4.2 3.3zM263.8 393.7l-6.1.5 4 3.8h.5c1.8-.1 3.5-.5 5.1-.9l-3.5-3.4zM203.3 312.5l3.5-4.4-4.8-1.1-.2.2c-1.1 1.3-2 2.8-2.8 4.3l4.3 1zM277.3 384.1l-3.5 4.4 4.4 1.7c.1-.1.2-.2.3-.4 1-1.3 1.9-2.7 2.7-4.2l-3.9-1.5zM199.6 331.4v-7.1l-3.5 1.8v.3c0 2.1.2 4.3.5 6.5l3-1.5zM280.9 365v7.1l3.5-.9v-.6c0-2.1-.2-4.2-.4-6.4l-3.1.8zM206.6 354.8l-3.5-7.9-1.3 4.2c0 .1.1.2.1.3 1.1 2.4 2.3 4.7 3.6 7l1.1-3.6zM273.5 341.5l3.5 7.9 1.7-3.2c-.1-.2-.2-.4-.3-.7-1-2.3-2.2-4.6-3.5-6.8l-1.4 2.8zM222.7 376.6l-6.1-6.6 1.3 5.5.3.3c1.9 2 3.8 3.9 5.7 5.6l-1.2-4.8zM257.2 319.9l6.1 6.6-.5-4.6c-.2-.2-.3-.4-.5-.6-1.8-1.9-3.7-3.8-5.5-5.5l.4 4.1z"></path></g><g opacity=".5"><path d="M233.2 289.6c-.6.3-1.2.5-1.8.8l-5.7 2.9-.6 1.1-12.2 5.7c1.6-.5 3.4-.8 5.2-.9h.3l12.3-5.2 2.5-4.4zM288 312.9c-1.3-1.6-2.7-3.1-4.2-4.6l-6.9 8.2-20.2-.7c1.9 1.7 3.7 3.5 5.5 5.5.2.2.3.4.5.6l17.7.4 7.6-9.4zM240.2 304.4c.1.1.2.1.3.2l19.6-1.9 4.8-8.9c-.6-.3-1.1-.6-1.7-.9-1.3-.6-2.5-1.2-3.7-1.7L255 299l-21 2.7c1.9.7 4.1 1.6 6.2 2.7zM296.3 374.4l9.6-4.6c.7-2.4 1.2-5 1.4-7.8l-10.2 5.3-13.1-3c.3 2.2.4 4.3.4 6.4v.6l11.9 3.1zM281.1 385.5c-.8 1.5-1.7 2.9-2.7 4.2-.1.1-.2.2-.3.4l2.9.4 7.6-3.8-7.5-1.2zM278.8 346.2l17.1 3.6 8.7-7.6c-.8-2.6-1.9-5.3-3-7.9l-8.7 7.3-17.8-2.9c1.2 2.2 2.4 4.5 3.5 6.8 0 .2.1.5.2.7z"></path></g><path d="m202 258-19 10v-13l19-10z" opacity=".2"></path><path d="M164 159v29.1l16.8 8.5 21.2 34v-52.5z" opacity=".15"></path></svg>